<svg width="242" height="78" viewBox="0 0 242 78" fill="none" xmlns="http://www.w3.org/2000/svg">
<g clip-path="url(#clip0_430_105)">
<path d="M62.6321 8.82629V58.0895H13.6454V69.1737H73.8895V8.82629H62.6321Z" fill="#45B4A0"/>
<path d="M24.9028 26.6842H13.6454V52.8895H24.9028V26.6842Z" fill="#333333"/>
<path d="M41.2772 15.6H30.0198V52.8895H41.2772V15.6Z" fill="#333333"/>
<path d="M57.5833 8.82629H46.3259V52.9579H57.5833V8.82629Z" fill="#333333"/>
<path d="M94.2893 11.1526H99.2699V40.4369H94.2893V11.1526ZM96.4726 11.1526H107.252V16.0105H96.4726V11.1526ZM96.4726 23.4684H106.229V28.3263H96.4726V23.4684ZM96.4726 35.579H107.252V40.4369H96.4726V35.579Z" fill="#333333"/>
<path d="M109.777 11.1526H113.666L120.557 30.6526L120.079 31.4737V11.1526H124.582V40.3684H120.625L113.87 21.9632L114.416 21.1421V40.3684H109.845V11.1526H109.777Z" fill="#333333"/>
<path d="M131.405 39.8211C130.381 39.2053 129.563 38.3842 129.017 37.2895C128.471 36.1948 128.198 34.8263 128.198 33.2527V18.2684C128.198 16.6948 128.471 15.3263 129.017 14.2316C129.563 13.1369 130.381 12.2474 131.405 11.7C132.428 11.0842 133.724 10.8105 135.157 10.8105C136.658 10.8105 137.886 11.0842 138.91 11.7C139.933 12.3158 140.752 13.1369 141.298 14.2316C141.843 15.3263 142.116 16.6948 142.116 18.2684V20.5948H137.136V18.2684C137.136 17.7895 137.067 17.3105 136.931 16.9684C136.795 16.6263 136.59 16.3527 136.249 16.1474C135.976 15.9421 135.566 15.8737 135.157 15.8737C134.748 15.8737 134.407 15.9421 134.134 16.1474C133.861 16.3527 133.588 16.6263 133.451 16.9684C133.315 17.3105 133.247 17.7895 133.247 18.2684V33.2527C133.247 33.7316 133.315 34.1421 133.451 34.5527C133.588 34.8948 133.861 35.1684 134.134 35.3737C134.407 35.579 134.748 35.6474 135.157 35.6474C135.566 35.6474 135.976 35.579 136.249 35.3737C136.522 35.1684 136.795 34.8948 136.931 34.5527C137.067 34.2105 137.136 33.7316 137.136 33.2527V30.9263H142.184V33.2527C142.184 34.8263 141.912 36.1948 141.366 37.2895C140.82 38.3842 140.001 39.2737 138.978 39.8211C137.954 40.4369 136.658 40.7105 135.225 40.7105C133.656 40.7105 132.428 40.4369 131.405 39.8211Z" fill="#333333"/>
<path d="M148.257 39.8211C147.233 39.2053 146.414 38.3842 145.869 37.2895C145.323 36.1948 145.05 34.8263 145.05 33.3211V11.1526H150.03V33.4579C150.03 34.1421 150.235 34.6895 150.576 35.1C150.917 35.5105 151.395 35.7158 152.009 35.7158C152.623 35.7158 153.101 35.5105 153.51 35.1C153.851 34.6895 154.056 34.1421 154.056 33.4579V11.1526H159.036V33.3211C159.036 34.8948 158.763 36.1948 158.218 37.2895C157.672 38.3842 156.853 39.2737 155.83 39.8211C154.806 40.4369 153.51 40.7105 152.077 40.7105C150.508 40.7105 149.28 40.4369 148.257 39.8211Z" fill="#333333"/>
<path d="M162.243 11.1526H167.224V40.4369H162.243V11.1526ZM164.426 11.1526H175.206V16.0105H164.426V11.1526ZM164.426 23.4684H174.183V28.3263H164.426V23.4684ZM164.426 35.579H175.206V40.4369H164.426V35.579Z" fill="#333333"/>
<path d="M180.801 39.8895C179.709 39.3421 178.89 38.5211 178.276 37.4263C177.662 36.3316 177.389 35.0316 177.389 33.5263V31.9527L182.37 31.8842V33.4579C182.37 34.2105 182.575 34.7579 182.984 35.1684C183.393 35.579 184.007 35.7842 184.69 35.7842C185.44 35.7842 185.986 35.579 186.395 35.1684C186.805 34.7579 187.009 34.2105 187.009 33.4579V30.9263C187.009 30.379 186.873 29.9 186.532 29.5579C186.259 29.1474 185.85 28.8053 185.372 28.5316C184.894 28.2579 184.28 27.9158 183.462 27.5053C183.393 27.5053 183.325 27.4369 183.325 27.4369C183.257 27.4369 183.257 27.3684 183.189 27.3684L182.916 27.2316C181.824 26.6842 180.937 26.1369 180.118 25.5211C179.368 24.9053 178.754 24.1527 178.208 23.1263C177.731 22.1684 177.458 20.9369 177.458 19.5V17.9948C177.458 16.4895 177.731 15.2579 178.345 14.1632C178.89 13.0684 179.709 12.2474 180.801 11.7C181.892 11.1527 183.189 10.879 184.69 10.879C186.191 10.879 187.419 11.1527 188.51 11.7C189.602 12.2474 190.421 13.0684 190.966 14.1632C191.512 15.2579 191.785 16.5579 191.785 18.0632V19.7053L186.805 19.7737V18.1316C186.805 17.379 186.6 16.7632 186.259 16.3527C185.85 15.9421 185.372 15.7369 184.69 15.7369C183.939 15.7369 183.393 15.9421 182.984 16.2842C182.575 16.6948 182.37 17.1737 182.37 17.8579V19.8421C182.37 20.3895 182.506 20.8684 182.779 21.279C183.052 21.6895 183.462 22.0316 183.871 22.3053C184.28 22.579 184.894 22.9211 185.713 23.3316C185.85 23.4 185.986 23.4684 186.191 23.5369C186.395 23.6053 186.532 23.6737 186.668 23.8105C186.668 23.8105 186.736 23.8105 186.736 23.879C186.736 23.9474 186.805 23.879 186.805 23.9474C187.896 24.5632 188.783 25.1105 189.466 25.5895C190.148 26.0684 190.762 26.8211 191.239 27.7105C191.717 28.6 191.99 29.7632 191.99 31.2V33.5263C191.99 35.0316 191.717 36.3316 191.103 37.4263C190.557 38.5211 189.738 39.3421 188.647 39.8895C187.555 40.4369 186.259 40.779 184.758 40.779C183.189 40.7105 181.892 40.4369 180.801 39.8895Z" fill="#333333"/>
<path d="M193.491 11.1526H208.091V15.9421H193.491V11.1526ZM198.335 13.6158H203.315V40.4369H198.335V13.6158Z" fill="#333333"/>
<path d="M215.255 11.1526H218.735L225.694 40.4369H220.782L216.961 21.2105L213.208 40.3684H208.296L215.255 11.1526ZM213.004 31.2H220.986V35.8527H213.004V31.2Z" fill="#333333"/>
<path d="M230.879 39.8895C229.787 39.3421 228.969 38.5211 228.355 37.4263C227.741 36.3316 227.468 35.0316 227.468 33.5263V31.9527L232.448 31.8842V33.4579C232.448 34.2105 232.653 34.7579 233.062 35.1684C233.472 35.579 234.086 35.7842 234.768 35.7842C235.519 35.7842 236.064 35.579 236.474 35.1684C236.883 34.7579 237.088 34.2105 237.088 33.4579V30.9263C237.088 30.379 236.951 29.9 236.61 29.5579C236.337 29.1474 235.928 28.8053 235.45 28.5316C234.973 28.2579 234.359 27.9158 233.54 27.5053C233.472 27.5053 233.404 27.4369 233.404 27.4369C233.335 27.4369 233.335 27.3684 233.267 27.3684L232.994 27.2316C231.903 26.6842 231.016 26.1369 230.197 25.5211C229.446 24.9053 228.832 24.1527 228.287 23.1263C227.809 22.1684 227.536 20.9369 227.536 19.5V17.9948C227.536 16.4895 227.809 15.2579 228.423 14.1632C228.969 13.0684 229.787 12.2474 230.879 11.7C231.971 11.1527 233.267 10.879 234.768 10.879C236.269 10.879 237.497 11.1527 238.589 11.7C239.68 12.2474 240.499 13.0684 241.045 14.1632C241.591 15.2579 241.864 16.5579 241.864 18.0632V19.7053L236.883 19.7737V18.1316C236.883 17.379 236.678 16.7632 236.337 16.3527C235.928 15.9421 235.45 15.7369 234.768 15.7369C234.018 15.7369 233.472 15.9421 233.062 16.2842C232.653 16.6948 232.448 17.1737 232.448 17.8579V19.8421C232.448 20.3895 232.585 20.8684 232.858 21.279C233.131 21.6895 233.54 22.0316 233.949 22.3053C234.359 22.579 234.973 22.9211 235.791 23.3316C235.928 23.4 236.064 23.4684 236.269 23.5369C236.474 23.6053 236.61 23.6737 236.747 23.8105C236.747 23.8105 236.815 23.8105 236.815 23.879C236.815 23.9474 236.883 23.879 236.883 23.9474C237.975 24.5632 238.862 25.1105 239.544 25.5895C240.226 26.0684 240.84 26.8211 241.318 27.7105C241.795 28.6 242.068 29.7632 242.068 31.2V33.5263C242.068 35.0316 241.795 36.3316 241.181 37.4263C240.636 38.5211 239.817 39.3421 238.725 39.8895C237.634 40.4369 236.337 40.779 234.836 40.779C233.267 40.7105 231.971 40.4369 230.879 39.8895Z" fill="#333333"/>
<path d="M94.4258 46.7316H97.3595L100.02 62.4L102.681 46.7316H105.615L101.521 67.3947H98.5876L94.4258 46.7316Z" fill="#45B4A0"/>
<path d="M115.576 67.4632H112.779V46.7316H115.576V67.4632Z" fill="#45B4A0"/>
<path d="M124.173 46.7316H126.97V67.4632H124.173V46.7316ZM125.469 56.0369H129.29C129.767 56.0369 130.177 55.9684 130.449 55.7632C130.722 55.5579 131.063 55.3526 131.2 55.0105C131.336 54.6684 131.473 54.2579 131.473 53.8474V51.7263C131.473 51.2474 131.405 50.8369 131.2 50.4948C130.995 50.1526 130.791 49.879 130.449 49.6737C130.108 49.4684 129.699 49.4 129.29 49.4H125.469V46.7316H129.017C130.108 46.7316 131.063 46.9369 131.814 47.279C132.564 47.6211 133.179 48.1684 133.588 48.8526C133.997 49.5369 134.202 50.4263 134.202 51.3842V53.779C134.202 54.8053 133.997 55.6948 133.588 56.379C133.179 57.1316 132.564 57.679 131.814 58.0211C130.995 58.4316 130.108 58.5684 129.017 58.5684H125.469V56.0369ZM128.88 58.0211L131.473 57.3369L134.748 67.3947H131.746L128.88 58.0211Z" fill="#45B4A0"/>
<path d="M141.639 46.7316H151.668V49.4H141.639V46.7316ZM145.323 48.4421H148.12V67.4632H145.323V48.4421Z" fill="#45B4A0"/>
<path d="M160.879 67.0527C160.196 66.6421 159.65 66.0948 159.309 65.4105C158.968 64.7263 158.764 63.7684 158.764 62.7421V46.7316H161.561V62.8105C161.561 63.4948 161.697 63.9737 162.038 64.3158C162.38 64.6579 162.857 64.8632 163.471 64.8632C164.085 64.8632 164.563 64.6579 164.904 64.3158C165.245 63.9737 165.382 63.4263 165.382 62.8105V46.7316H168.179V62.7421C168.179 63.7684 167.974 64.6579 167.633 65.4105C167.292 66.1632 166.746 66.7105 166.064 67.0527C165.382 67.4632 164.495 67.6 163.471 67.6C162.448 67.6684 161.629 67.4632 160.879 67.0527Z" fill="#45B4A0"/>
<path d="M180.46 46.7316H182.916L187.692 67.3947H184.758L181.688 51.3158L178.617 67.3947H175.684L180.46 46.7316ZM178.754 60.4842H184.826V63.0842H178.754V60.4842Z" fill="#45B4A0"/>
<path d="M195.333 46.7316H198.13V67.3947H195.333V46.7316ZM196.766 64.7947H203.93V67.4632H196.766V64.7947Z" fill="#45B4A0"/>
<path d="M211.844 46.7316H214.641V67.3947H211.844V46.7316ZM213.208 46.7316H220.645V49.4H213.208V46.7316ZM213.208 55.8316H219.963V58.5H213.208V55.8316ZM213.208 64.7947H220.645V67.4632H213.208V64.7947Z" fill="#45B4A0"/>
<path d="M230.743 67.1211C229.992 66.779 229.446 66.1632 229.037 65.479C228.628 64.7263 228.423 63.8369 228.491 62.8105V61.7842H231.288V62.7421C231.288 63.4263 231.493 63.9737 231.834 64.3842C232.244 64.7947 232.789 65 233.472 65C234.154 65 234.7 64.7947 235.109 64.4526C235.519 64.1105 235.655 63.4948 235.655 62.8105V60.8948C235.655 60.4158 235.519 60.0053 235.314 59.6632C235.041 59.3211 234.768 59.0474 234.427 58.8421C234.086 58.6369 233.54 58.3632 232.926 58.0895C232.926 58.0895 232.858 58.0895 232.858 58.0211C232.858 57.9526 232.789 58.0211 232.789 58.0211L232.585 57.9526C231.698 57.5421 231.016 57.1316 230.47 56.7895C229.924 56.379 229.446 55.9 229.105 55.2158C228.696 54.5316 228.559 53.7105 228.559 52.6842V51.5211C228.559 50.4948 228.764 49.6053 229.105 48.9211C229.515 48.1684 230.06 47.6211 230.811 47.279C231.561 46.9369 232.448 46.7316 233.54 46.7316C234.563 46.7316 235.45 46.9369 236.201 47.279C236.951 47.6211 237.497 48.2369 237.838 48.9211C238.248 49.6737 238.384 50.5632 238.384 51.5895V52.6842H235.587V51.6579C235.587 50.9053 235.382 50.3579 235.041 49.9474C234.7 49.5369 234.154 49.3316 233.472 49.3316C232.721 49.3316 232.175 49.5369 231.834 49.879C231.425 50.2211 231.288 50.7684 231.288 51.4526V52.6842C231.288 53.1632 231.425 53.6421 231.63 53.9842C231.903 54.3263 232.175 54.6 232.517 54.8053C232.858 55.0105 233.404 55.2842 234.018 55.5579C234.086 55.5579 234.154 55.6263 234.222 55.6263C234.29 55.6263 234.359 55.6948 234.427 55.6948C234.495 55.6948 234.495 55.7632 234.563 55.7632C234.632 55.7632 234.632 55.8316 234.7 55.8316C235.519 56.2421 236.201 56.5842 236.678 56.9263C237.156 57.2684 237.634 57.7474 237.975 58.3632C238.316 58.979 238.521 59.8684 238.521 60.8263V62.6737C238.521 63.7 238.316 64.5895 237.975 65.3421C237.565 66.0947 237.02 66.6421 236.269 66.9842C235.519 67.3947 234.632 67.5316 233.54 67.5316C232.38 67.6684 231.493 67.4632 230.743 67.1211Z" fill="#45B4A0"/>
</g>
<defs>
<clipPath id="clip0_430_105">
<rect width="242" height="78" fill="white"/>
</clipPath>
</defs>
</svg>
